# xmcd
#
# Track frame offsets: 
#        150
#        18520
#        37375
#        62158
#        78708
#        100883
#        123583
#        143488
#        164390
#        182400
#        198973
#        217870
#
# Disc length: 3105 seconds
#
# Revision: 10
# Processed by: cddbd v1.5.2PL0 Copyright (c) Steve Scherf et al.
# Submitted via: ExactAudioCopyFreeDBPlugin 1.0
#
DISCID=a60c1f0c
DTITLE=Soundtrack - Streets Is Watching Soundtrack
DYEAR=1998
DGENRE=Soundtrack
TTITLE0=Memphis Bleek and Jay-Z - It's Alright
TTITLE1=Rell Feat. Jay-Z - Love For Free
TTITLE2=Jay-Z - Only A Customer
TTITLE3=Christion - Pimp This Love
TTITLE4=Murder, Inc. (Jay-Z, Ja Rule and DMX) - Murdergram
TTITLE5=Diamonds In Da Rough - The Doe
TTITLE6=Usual Suspects - Crazy
TTITLE7=Jay-Z - In My Lifetime (Remix)
TTITLE8=Christion Feat. Jay-Z - Your Love
TTITLE9=DJ Clue Feat. Noreaga - Thugs R Us
TTITLE10=M.O.P. - My Nigga Hill Figga
TTITLE11=Team ROC (Starring Jay-Z, Memphis Bleek, Sauce Money and Wais O
TTITLE11=f The Ranjahz) - Celebration
EXTD=Jameel Miles
EXTT0=
EXTT1=
EXTT2=
EXTT3=
EXTT4=
EXTT5=
EXTT6=
EXTT7=
EXTT8=
EXTT9=
EXTT10=
EXTT11=
PLAYORDER=
